<svg width="113" height="23" viewBox="0 0 113 23" fill="none" xmlns="http://www.w3.org/2000/svg">
<mask id="mask0_1_43" style="mask-type:luminance" maskUnits="userSpaceOnUse" x="0" y="0" width="34" height="22">
<path d="M8.07779 0.986153C6.0874 1.48228 4.27374 2.5473 2.85267 4.07562C0.856944 6.22164 -0.16623 9.07325 0.0220625 12.0243C0.360456 17.3485 4.65566 21.6397 9.98292 21.9778C12.9361 22.1651 15.7898 21.1435 17.9374 19.1493C19.4668 17.7292 20.5326 15.9169 21.0291 13.928C21.2565 13.0174 20.6188 12.1201 19.6827 12.0464C18.9535 11.9896 18.2802 12.4609 18.1035 13.17C17.273 16.5116 14.2204 18.9806 10.6739 18.9806C6.45421 18.9806 3.02142 15.5504 3.02142 11.3338C3.02142 7.78989 5.49232 4.73948 8.83629 3.90965C9.54594 3.73392 10.0176 3.06029 9.96072 2.33163C9.89766 1.52488 9.22087 0.940002 8.45171 0.940002C8.32914 0.940002 8.20391 0.955089 8.07868 0.986153M15.4994 3.79072C13.9699 5.21075 12.905 7.02307 12.4076 9.01201C12.1803 9.9226 12.818 10.8199 13.7541 10.8935C14.4833 10.9504 15.1565 10.4791 15.3333 9.76995C16.1637 6.42754 19.2164 3.95935 22.7628 3.95935C26.9825 3.95935 30.4153 7.38962 30.4153 11.6062C30.4153 15.1501 27.9444 18.2005 24.6005 19.0303C23.8908 19.207 23.4192 19.8797 23.476 20.6084C23.5489 21.5438 24.4477 22.181 25.3581 21.9538C27.3494 21.4577 29.1621 20.3927 30.5832 18.8644C32.5789 16.7184 33.6021 13.8667 33.4138 10.9157C33.0745 5.5915 28.7802 1.30034 23.4529 0.96219C23.222 0.94799 22.992 0.940002 22.7628 0.940002C20.0583 0.940002 17.4782 1.95266 15.4985 3.79072" fill="white"/>
</mask>
<g mask="url(#mask0_1_43)">
<path d="M33.6021 0.940002H-0.165344V22.1802H33.6021V0.940002Z" fill="white"/>
</g>
<path d="M51.6056 7.85953L49.8738 9.50971C48.6956 8.26477 47.3693 7.64321 45.897 7.64321C44.6538 7.64321 43.6062 8.06763 42.7549 8.91736C41.9036 9.7671 41.478 10.814 41.478 12.058C41.478 12.9251 41.6662 13.6945 42.0434 14.3672C42.4206 15.0398 42.954 15.5674 43.6427 15.9507C44.3323 16.3341 45.0977 16.5257 45.9408 16.5257C46.6596 16.5257 47.3164 16.3916 47.9119 16.1232C48.5065 15.8549 49.1605 15.3666 49.8738 14.6592L51.5526 16.4098C50.5917 17.3472 49.6829 17.997 48.828 18.3594C47.9731 18.7217 46.9967 18.9034 45.8997 18.9034C43.8766 18.9034 42.2215 18.2626 40.9327 16.9812C39.6439 15.6997 39 14.0568 39 12.0534C39 10.7574 39.2932 9.60463 39.8805 8.597C40.4669 7.58937 41.3072 6.77888 42.4014 6.16645C43.4957 5.55402 44.673 5.24734 45.9353 5.24734C47.0085 5.24734 48.0425 5.4737 49.0363 5.92732C50.03 6.38002 50.8868 7.0244 51.6056 7.85953Z" fill="white"/>
<path d="M60.2891 8.95935H62.7041V18.5766H60.2891V17.5598C59.8178 18.0071 59.3447 18.3302 58.8707 18.5273C58.3966 18.7245 57.8824 18.823 57.3289 18.823C56.0858 18.823 55.0116 18.3411 54.1037 17.3782C53.1958 16.4153 52.7428 15.2169 52.7428 13.7849C52.7428 12.3528 53.1812 11.0832 54.059 10.134C54.9367 9.1857 56.0026 8.71109 57.2576 8.71109C57.8349 8.71109 58.3765 8.82062 58.8834 9.03784C59.3895 9.25598 59.858 9.58273 60.2882 10.019V8.95844L60.2891 8.95935ZM57.7508 10.939C57.0046 10.939 56.3844 11.2028 55.8903 11.7303C55.3971 12.2579 55.1495 12.9342 55.1495 13.7593C55.1495 14.5844 55.4007 15.2735 55.9031 15.8102C56.4054 16.3468 57.0238 16.6143 57.7591 16.6143C58.4943 16.6143 59.1456 16.3505 59.6452 15.8229C60.1448 15.2954 60.3942 14.6045 60.3942 13.7502C60.3942 12.8959 60.1448 12.236 59.6452 11.7176C59.1456 11.1991 58.5135 10.9399 57.7499 10.9399" fill="white"/>
<path d="M67.2217 8.95932V10.0199C67.6583 9.58362 68.1296 9.25687 68.6365 9.03873C69.1435 8.82059 69.686 8.71198 70.2642 8.71198C71.5201 8.71198 72.5878 9.18659 73.4665 10.1349C74.3452 11.0832 74.7845 12.3008 74.7845 13.7857C74.7845 15.2707 74.3306 16.4153 73.4227 17.3791C72.5148 18.3429 71.4379 18.8239 70.1938 18.8239C69.6394 18.8239 69.1234 18.7253 68.6457 18.5282C68.168 18.3311 67.693 18.008 67.2217 17.5607V22.0951H64.825V8.96024H67.2217V8.95932ZM69.76 10.939C68.9991 10.939 68.368 11.1982 67.8675 11.7166C67.366 12.235 67.1157 12.9132 67.1157 13.7492C67.1157 14.5853 67.366 15.2945 67.8675 15.822C68.3689 16.3496 69.0001 16.6133 69.76 16.6133C70.5199 16.6133 71.1182 16.345 71.6224 15.8092C72.1266 15.2735 72.3787 14.5898 72.3787 13.7584C72.3787 12.9269 72.1311 12.257 71.6352 11.7294C71.1401 11.2019 70.5144 10.9381 69.76 10.9381" fill="white"/>
<path d="M77.7256 5C78.1494 5 78.512 5.15333 78.8153 5.46001C79.1176 5.76668 79.2692 6.13724 79.2692 6.57352C79.2692 7.00979 79.1194 7.37031 78.8189 7.67425C78.5193 7.97818 78.1604 8.12969 77.743 8.12969C77.3255 8.12969 76.9474 7.97544 76.6451 7.66603C76.3418 7.35662 76.1911 6.9815 76.1911 6.53883C76.1911 6.09617 76.3409 5.75208 76.6405 5.45179C76.9401 5.15151 77.3018 5.00091 77.7256 5.00091M76.5181 8.96117H78.9331V18.5784H76.5181V8.96117Z" fill="white"/>
<path d="M81.7399 5.41528H84.1549V8.95935H85.9086V11.0367H84.1549V18.5766H81.7399V11.0367H80.5014V8.95935H81.7399V5.41528Z" fill="white"/>
<path d="M91.7195 8.71198C92.6274 8.71198 93.4815 8.93924 94.2807 9.39286C95.0799 9.84648 95.7037 10.4626 96.1513 11.2402C96.5997 12.0178 96.8235 12.8575 96.8235 13.7593C96.8235 14.661 96.5979 15.5153 96.1467 16.3048C95.6955 17.0943 95.0808 17.7122 94.3026 18.1567C93.5244 18.6012 92.6667 18.8239 91.7287 18.8239C90.3485 18.8239 89.1703 18.3329 88.1948 17.3526C87.2184 16.3715 86.7306 15.1795 86.7306 13.7775C86.7306 12.2752 87.2823 11.023 88.3848 10.0208C89.352 9.14917 90.4636 8.71289 91.7195 8.71289M91.7597 10.9846C91.0098 10.9846 90.3851 11.2457 89.8855 11.7668C89.3858 12.288 89.1365 12.9561 89.1365 13.7684C89.1365 14.5807 89.3831 15.2826 89.8763 15.801C90.3696 16.3194 90.9943 16.5786 91.7506 16.5786C92.5069 16.5786 93.1353 16.3167 93.6376 15.7919C94.14 15.2671 94.3912 14.5926 94.3912 13.7675C94.3912 12.9424 94.1446 12.2725 93.6513 11.7568C93.1581 11.2411 92.5279 10.9837 91.7597 10.9837" fill="white"/>
<path d="M100.946 5.24734H98.5306V18.5766H100.946V5.24734Z" fill="white"/>
<path d="M112.781 14.4666H105.024C105.135 15.1502 105.435 15.6933 105.922 16.0976C106.409 16.5011 107.029 16.7028 107.784 16.7028C108.687 16.7028 109.462 16.3879 110.111 15.7572L112.145 16.7119C111.638 17.4311 111.03 17.9623 110.322 18.3073C109.615 18.6523 108.774 18.8239 107.801 18.8239C106.292 18.8239 105.062 18.3484 104.113 17.3964C103.163 16.4445 102.689 15.2525 102.689 13.8213C102.689 12.3902 103.162 11.1361 104.109 10.1659C105.055 9.19662 106.241 8.71198 107.669 8.71198C109.184 8.71198 110.417 9.19662 111.366 10.1659C112.315 11.1352 112.79 12.4158 112.79 14.0066L112.781 14.4666ZM110.366 12.5664C110.206 12.0306 109.892 11.5943 109.423 11.2584C108.953 10.9226 108.408 10.7546 107.788 10.7546C107.115 10.7546 106.524 10.9436 106.016 11.3205C105.697 11.556 105.401 11.9722 105.13 12.5664H110.366Z" fill="white"/>
</svg>
